Coordinates
version=1
nRows=12
nColumns=34
inDegrees=yes

Units are S.I. units (second, meters, Newtons, ...)
If the header above contains a line with 'inDegrees', this indicates whether rotational values are in degrees (yes) or radians (no).

endheader
time	pelvis_tilt	pelvis_list	pelvis_rotation	pelvis_tx	pelvis_ty	pelvis_tz	hip_flexion_r	hip_adduction_r	hip_rotation_r	knee_angle_r	ankle_angle_r	subtalar_angle_r	mtp_angle_r	hip_flexion_l	hip_adduction_l	hip_rotation_l	knee_angle_l	ankle_angle_l	subtalar_angle_l	mtp_angle_l	lumbar_extension	lumbar_bending	lumbar_rotation	arm_flex_r	arm_add_r	arm_rot_r	elbow_flex_r	pro_sup_r	arm_flex_l	arm_add_l	arm_rot_l	elbow_flex_l	pro_sup_l
      0.80000000	      0.63561078	      1.93314439	      5.65597076	     -0.69265403	      0.90555345	      0.21716318	     23.77607483	     -1.12439899	     -6.82640704	     -7.28289039	      1.66774653	      3.11887131	     10.07491905	    -15.03955216	      4.90495123	      0.47789535	     -4.98382967	     11.91292376	      6.84373273	      5.33344757	     -7.01667340	     -1.79343600	     -7.77562542	     -7.29689024	    -13.59020222	      7.95900020	      9.88843310	     90.00000000	     10.50387893	    -20.71953335	     17.69019513	     39.96616255	     90.00000000
      0.81000000	      0.75088281	      1.90449286	      5.76080994	     -0.67901456	      0.90411921	      0.21742424	     23.68647490	     -0.95262859	     -7.30531377	     -5.41163329	      1.51952110	      4.16789647	     10.24747868	    -16.03651336	      4.66879167	      0.80064163	     -5.08887836	     11.88094172	      7.01960515	      5.61270267	     -7.09281402	     -1.72753535	     -7.96074389	     -7.38590263	    -13.39836599	      7.39188975	      9.30070046	     90.00000000	     10.78079729	    -20.76743966	     17.56225519	     40.46089935	     90.00000000
      0.82000000	      0.65126161	      1.94802200	      5.77412643	     -0.66535724	      0.90241757	      0.21783261	     23.94524741	     -0.82937068	     -7.48653726	     -4.26179954	      1.44889411	      4.71172620	     10.28652349	    -16.65740861	      4.56924282	      0.96400624	     -5.45541609	     11.83993521	      7.14727282	      5.73312434	     -6.95182369	     -1.77084630	     -8.06439580	     -7.65266394	    -13.26931292	      7.21517793	      9.35712521	     90.00000000	     10.97094653	    -20.81124264	     17.38111142	     40.92845502	     90.00000000
      0.83000000	      0.86059569	      1.87292893	      6.02649270	     -0.65145813	      0.90133065	      0.21808575	     23.81648965	     -0.67224554	     -8.08637276	     -3.60124157	      1.26232498	      5.39010753	     10.41171910	    -17.46773073	      4.21997383	      1.14499856	     -6.06897726	     11.80607699	      7.43639315	      6.05972770	     -7.15848960	     -1.63611053	     -8.46825139	     -7.64610960	    -13.13692905	      6.77005731	      9.03432568	     90.00000000	     11.00432997	    -20.90938886	     17.01240649	     41.59026265	     90.00000000
      0.84000000	      0.81608056	      1.93655104	      6.00727394	     -0.63737846	      0.89984752	      0.21862646	     24.09014347	     -0.57316747	     -8.12996113	     -3.73977453	      1.40613925	      5.37968728	     10.44327039	    -17.97260624	      4.13193303	      1.21843608	     -6.78949494	     11.67432657	      7.45867181	      6.08947881	     -7.03832941	     -1.69951430	     -8.52612849	     -8.02260623	    -13.11849737	      6.70198848	      9.49894305	     90.00000000	     11.07425608	    -20.98104560	     16.81784926	     41.92951699	     90.00000000
      0.85000000	      0.87731030	      1.83999518	      6.29326999	     -0.62286187	      0.89872372	      0.21839076	     24.03643656	     -0.45173806	     -8.44266204	     -4.10167843	      1.72719075	      5.18654333	     10.50233403	    -18.48917441	      3.79746669	      1.50967142	     -7.69818256	     11.24917987	      7.66785684	      6.20370283	     -6.97702091	     -1.49431411	     -8.75907044	     -8.24431471	    -13.04272681	      6.50643134	      9.46493940	     90.00000000	     11.02898833	    -20.81516491	     16.54954193	     42.41094196	     90.00000000
      0.86000000	      1.31691384	      1.70925560	      6.43867329	     -0.60802500	      0.89811239	      0.21859134	     23.74724573	     -0.19784565	     -8.74273932	     -5.28461035	      1.80141245	      4.69772112	     10.85072782	    -19.39439419	      3.39287909	      1.48488719	     -8.53107312	      9.99313684	      7.82587385	     12.36315416	     -7.31528132	     -1.24420192	     -9.36579488	     -7.81473032	    -12.97846039	      7.54463672	      8.55735437	     90.00000000	     10.44794278	    -20.81549570	     15.35844295	     43.19378065	     90.00000000
      0.87000000	      1.40935652	      1.65736717	      6.51149811	     -0.59285977	      0.89702195	      0.21859917	     23.89145044	     -0.06634810	     -8.90434354	     -7.02848563	      2.02580643	      4.11016812	     10.85419023	    -19.85281927	      3.14127399	      1.47636440	     -9.62049715	      9.42174358	      8.04598248	     12.38491785	     -7.23320423	     -1.08661234	     -9.50936570	     -8.07994388	    -13.01267432	      7.33768592	      8.87907705	     90.00000000	     10.17539848	    -20.72161174	     15.12621297	     43.47268041	     90.00000000
      0.88000000	      1.48321211	      1.56198715	      6.62905603	     -0.57730846	      0.89591132	      0.21864423	     23.97002756	      0.11333560	     -8.90434211	     -9.00427660	      2.27174083	      3.29526587	     10.84901778	    -20.18382677	      2.79396674	      1.30422568	    -10.86188940	      8.58362252	      8.59167134	     12.48286084	     -7.01638979	     -0.90213314	     -9.77164809	     -8.22760879	    -13.06456597	      7.04051630	      8.99022802	     90.00000000	      9.69491460	    -20.63873471	     14.79538067	     43.78160964	     90.00000000
      0.89000000	      1.41003294	      1.35807084	      6.60740819	     -0.56145407	      0.89458250	      0.21904817	     23.97572211	      0.54234703	     -8.30136738	    -10.72372597	      2.16286452	      2.05909651	     10.74071568	    -20.23166357	      2.34250867	      0.79723203	    -12.30935844	      7.59635995	      9.70381791	     12.84266025	     -6.60386355	     -0.62029958	     -9.93760981	     -8.27639794	    -13.09989281	      6.78375959	      8.81448454	     90.00000000	      9.01322311	    -20.50534981	     14.21287920	     44.12384386	     90.00000000
      0.90000000	      1.43923724	      1.14549619	      6.76031502	     -0.54573091	      0.89371117	      0.21864772	     23.94711394	      0.78977520	     -8.96178030	    -12.18333014	     -0.29184294	      0.94245855	     10.25837586	    -20.27099249	      1.89001306	      0.63460705	    -13.86395326	      6.41363464	      9.95710741	     12.95000164	     -6.37074668	     -0.23706468	    -10.04945155	     -8.60671542	    -13.22754048	      6.71696607	      9.32679514	     90.00000000	      8.53570219	    -20.28397557	     13.99408618	     44.36643395	     90.00000000
      0.91000000	      1.48116890	      0.16204674	      6.66825592	     -0.52980749	      0.89325309	      0.21947192	     23.22151711	      2.22445434	     -8.01594191	    -11.66463725	     -4.05766033	     -3.12673544	      8.88281294	    -19.97802076	      0.52822672	     -0.62420142	    -15.89099993	      4.95531665	     11.80442138	     14.20857070	     -5.99583374	      0.92044671	    -10.06339269	     -8.50976665	    -13.41397382	      6.70166825	      9.13841244	     90.00000000	      7.88647190	    -19.85411373	     13.22914961	     44.04003864	     90.00000000
